#!OML:ASF F:\VICON\USERDATA\INSTALL\rory3\rory3.ASF
:FULLY-SPECIFIED
:DEGREES
2260
root -0.955099 20.955 2.99337 -701.265 -107.133 708.098
lowerback 6.15622 0.218745 -2.63737
upperback -5.47216 0.0614429 1.48309
thorax -9.27155 0.227964 3.05773
lowerneck -14.0526 -4.75182 -14.7295
upperneck -17.2309 -5.04465 8.82595
head -2.38838 -2.36566 5.07778
rclavicle -4.07509e-015 0
rhumerus 87.5317 -22.5591 -44.9001
rradius 40.0197
rwrist -13.9517
rhand -40.6038 0.932394
rfingers 7.12502
rthumb -13.5497 -28.6067
lclavicle -4.07509e-015 0
lhumerus 73.8108 19.5306 38.733
lradius 47.6601
lwrist 31.8419
lhand -17.7491 26.3254
lfingers 7.12502
lthumb 8.51248 56.1339
rfemur -15.4364 0.821822 16.2154
rtibia 39.9813
rfoot 10.0896 -20.0296
rtoes 11.2384
lfemur -18.7158 -1.014 -19.7147
ltibia 33.8175
lfoot 23.0402 -1.57625
ltoes -7.16677
2261
root -0.983733 21.0984 2.96501 -701.713 -106.537 708.416
lowerback 6.97357 0.274327 -2.25297
upperback -5.67584 0.160102 1.4858
thorax -9.9867 0.264093 2.83801
lowerneck -14.5228 -4.75073 -14.6855
upperneck -17.0901 -4.97806 8.86381
head -2.28488 -2.33023 5.07163
rclavicle -4.77829e-014 1.98785e-014
rhumerus 90.7094 -23.1928 -46.1788
rradius 36.5527
rwrist -11.1097
rhand -39.3961 0.304808
rfingers 7.12502
rthumb -12.3856 -29.3083
lclavicle -4.77829e-014 1.98785e-014
lhumerus 76.3641 21.1088 39.4509
lradius 45.0061
lwrist 31.9695
lhand -17.6099 26.3503
lfingers 7.12502
lthumb 8.64678 56.1533
rfemur -15.1273 1.08338 16.51
rtibia 40.1659
rfoot 10.1227 -20.3198
rtoes 13.6397
lfemur -18.4316 -1.26243 -19.5203
ltibia 33.8803
lfoot 23.2321 -2.84089
ltoes -7.30143
2262
root -1.01733 21.2288 2.92932 -701.397 -105.954 707.937
lowerback 7.64062 0.293668 -2.20035
upperback -5.85471 0.175669 1.44453
thorax -10.5866 0.27758 2.76856
lowerneck -14.8564 -4.73441 -14.6167
upperneck -17.0463 -4.91395 8.92112
head -2.22949 -2.29862 5.07361
rclavicle -2.71838e-014 -1.35174e-014
rhumerus 93.8644 -23.4893 -47.4688
rradius 33.3202
rwrist -8.8953
rhand -39.6276 -0.436064
rfingers 7.12502
rthumb -12.6088 -30.0355
lclavicle -2.71838e-014 -1.35174e-014
lhumerus 78.8804 22.604 40.1893
lradius 42.4071
lwrist 31.9948
lhand -17.2086 26.868
lfingers 7.12502
lthumb 9.03402 56.6546
rfemur -14.778 1.32924 16.6044
rtibia 40.2413
rfoot 9.92052 -20.3429
rtoes 14.3596
lfemur -18.1463 -1.88252 -19.5019
ltibia 33.9389
lfoot 23.1847 -3.86992
ltoes -8.46565
2263
root -1.05758 21.3494 2.89115 -701.138 -105.287 707.644
lowerback 7.98894 0.314853 -2.13343
upperback -5.97785 0.206566 1.46063
thorax -10.9364 0.294562 2.74718
lowerneck -15.1027 -4.7728 -14.4355
upperneck -17.1677 -4.97498 8.80401
head -2.23402 -2.33463 5.00311
rclavicle 3.19298e-014 -5.56597e-015
rhumerus 96.843 -23.782 -48.6328
rradius 30.5366
rwrist -7.27648
rhand -40.3464 -1.61649
rfingers 7.12502
rthumb -13.3017 -31.172
lclavicle 3.19298e-014 -5.56597e-015
lhumerus 81.6552 23.9382 41.3463
lradius 39.7321
lwrist 31.895
lhand -16.5485 27.4028
lfingers 7.12502
lthumb 9.67095 57.1608
rfemur -14.5278 1.45054 16.7835
rtibia 40.2296
rfoot 9.42874 -20.1528
rtoes 12.8626
lfemur -17.9886 -2.58911 -19.3428
ltibia 33.9951
lfoot 22.9652 -4.33242
ltoes -8.37152
2264
root -1.10201 21.4601 2.85852 -701.218 -104.504 707.883
lowerback 8.08161 0.320918 -1.81748
upperback -6.08599 0.254007 1.4897
thorax -11.1139 0.296753 2.59424
lowerneck -15.8086 -4.93771 -14.2692
upperneck -16.8618 -5.11683 8.8093
head -2.02928 -2.40765 4.94716
rclavicle 3.80176e-015 -7.95139e-015
rhumerus 99.8063 -24.0056 -50.1282
rradius 28.1137
rwrist -5.33797
rhand -41.0842 -2.97168
rfingers 7.12502
rthumb -14.0128 -32.4794
lclavicle 3.80176e-015 -7.95139e-015
lhumerus 84.918 25.0774 43.0058
lradius 36.7251
lwrist 31.27
lhand -15.6724 27.9509
lfingers 7.12502
lthumb 10.5162 57.6679
rfemur -14.4917 1.58348 17.1414
rtibia 40.177
rfoot 8.73131 -19.9578
rtoes 10.4741
lfemur -18.0063 -3.28469 -18.9997
ltibia 34.0318
lfoot 22.6363 -4.73617
ltoes -7.69241
2265
root -1.14522 21.551 2.83086 -700.674 -103.771 707.638
lowerback 8.07675 0.30161 -1.61144
upperback -6.31328 0.2436 1.4519
thorax -11.3646 0.275891 2.44223
lowerneck -16.5921 -5.08301 -14.0961
upperneck -16.2416 -5.19301 8.97305
head -1.71739 -2.44481 4.93225
rclavicle 1.76173e-014 -9.54166e-015
rhumerus 102.765 -23.7487 -52.3837
rradius 26.0476
rwrist -2.83687
rhand -41.748 -3.72814
rfingers 7.12502
rthumb -14.6523 -33.1905
lclavicle 1.76173e-014 -9.54166e-015
lhumerus 88.168 25.9771 44.5687
lradius 33.5772
lwrist 30.2337
lhand -15.4568 29.1481
lfingers 7.12502
lthumb 10.7241 58.8544
rfemur -14.697 1.58301 17.3664
rtibia 40.1167
rfoot 8.30739 -19.3954
rtoes 8.46024
lfemur -18.1841 -4.09139 -18.8111
ltibia 34.0632
lfoot 22.0649 -5.32387
ltoes -7.25693
2266
root -1.19191 21.6244 2.79729 -698.439 -103.179 705.642
lowerback 7.99129 0.281929 -1.91076
upperback -6.59528 0.155951 1.32917
thorax -11.63 0.254213 2.49713
lowerneck -17.1146 -5.20411 -13.9393
upperneck -15.6963 -5.26645 9.17575
head -1.4628 -2.47861 4.94006
rclavicle 1.2424e-014 3.18055e-015
rhumerus 105.288 -23.1799 -54.541
rradius 24.8909
rwrist -1.06305
rhand -41.8031 -6.32587
rfingers 7.12502
rthumb -14.7055 -35.7843
lclavicle 1.2424e-014 3.18055e-015
lhumerus 91.0358 26.7346 45.8839
lradius 30.6654
lwrist 29.021
lhand -15.7037 31.1468
lfingers 7.12502
lthumb 10.486 60.8653
rfemur -14.8652 1.57576 17.1518
rtibia 40.0882
rfoot 7.57219 -18.7717
rtoes 8.63939
lfemur -18.2815 -4.85503 -19.0979
ltibia 34.0559
lfoot 21.0656 -6.23676
ltoes -8.21123
2267
root -1.24369 21.6847 2.75539 -695.634 -102.484 703.014
lowerback 7.86189 0.21816 -2.33927
upperback -6.85593 -0.0088741 1.20562
thorax -11.8416 0.206426 2.6369
lowerneck -17.6086 -5.34161 -13.6344
upperneck -15.1627 -5.40434 9.24243
head -1.21914 -2.54952 4.87808
rclavicle -2.07233e-014 1.27222e-014
rhumerus 107.288 -22.5723 -56.3675
rradius 24.3799
rwrist -0.672707
rhand -41.961 -8.02996
rfingers 7.12502
rthumb -14.8576 -37.4772
lclavicle -2.07233e-014 1.27222e-014
lhumerus 93.8988 27.3268 47.3972
lradius 27.8676
lwrist 27.033
lhand -15.772 32.6948
lfingers 7.12502
lthumb 10.4201 62.4165
rfemur -14.9406 1.68031 16.9292
rtibia 40.0815
rfoot 6.19451 -18.26
rtoes 9.43194
lfemur -18.3102 -5.66641 -19.4036
ltibia 34.0277
lfoot 19.924 -6.95685
ltoes -9.46988
2268
root -1.29665 21.7346 2.71156 -693.468 -101.701 700.98
lowerback 7.76236 0.147033 -2.61669
upperback -7.10816 -0.158966 1.14258
thorax -12.0619 0.157282 2.75478
lowerneck -18.1617 -5.44398 -13.0726
upperneck -14.54 -5.54961 9.07868
head -0.957401 -2.63241 4.6981
rclavicle 4.96962e-016 1.59028e-014
rhumerus 108.671 -22.1154 -57.5966
rradius 24.5098
rwrist -1.78838
rhand -42.0486 -9.42635
rfingers 7.12502
rthumb -14.942 -38.8674
lclavicle 4.96962e-016 1.59028e-014
lhumerus 96.7352 27.6535 49.1374
lradius 25.2714
lwrist 24.1713
lhand -15.6234 33.6504
lfingers 7.12502
lthumb 10.5634 63.365
rfemur -14.9686 2.012 16.9903
rtibia 40.0618
rfoot 4.62696 -17.8395
rtoes 9.05402
lfemur -18.269 -6.40569 -19.4694
ltibia 33.9963
lfoot 18.7977 -7.23346
ltoes -10.0355
2269
root -1.35266 21.7823 2.67029 -692.149 -100.941 699.878
lowerback 7.56399 0.12154 -2.74737
upperback -7.43142 -0.220165 1.18665
thorax -12.3092 0.143793 2.89131
lowerneck -18.5453 -5.53707 -12.7995
upperneck -13.8035 -5.64228 8.96261
head -0.682989 -2.6724 4.58417
rclavicle 1.80397e-014 3.4191e-014
rhumerus 109.381 -21.8559 -57.9222
rradius 25.074
rwrist -4.54892
rhand -42.1053 -9.91603
rfingers 7.12502
rthumb -14.9966 -39.353
lclavicle 1.80397e-014 3.4191e-014
lhumerus 99.3174 27.6196 51.1987
lradius 23.248
lwrist 21.5866
lhand -16.5271 35.1263
lfingers 7.12502
lthumb 9.69162 64.8833
rfemur -15.117 2.4427 17.2356
rtibia 40.0227
rfoot 2.94884 -17.477
rtoes 8.7295
lfemur -18.3014 -6.78728 -19.3339
ltibia 33.9692
lfoot 17.5479 -7.38764
ltoes -9.84831
2270
root -1.41178 21.822 2.63603 -691.056 -100.418 699.028
lowerback 7.30567 0.193799 -2.79752
upperback -7.76009 -0.138859 1.226
thorax -12.5372 0.190352 2.95146
lowerneck -18.7469 -5.76882 -13.05
upperneck -13.12 -5.83155 9.08553
head -0.418131 -2.73819 4.62806
rclavicle 1.81391e-014 1.51076e-014
rhumerus 109.682 -21.804 -57.5984
rradius 25.7575
rwrist -7.79999
rhand -41.7388 -8.885
rfingers 7.12502
rthumb -14.6435 -38.348
lclavicle 1.81391e-014 1.51076e-014
lhumerus 101.986 27.0417 54.1152
lradius 21.7233
lwrist 19.5629
lhand -18.445 36.4422
lfingers 7.12502
lthumb 7.84088 66.2768
rfemur -15.3319 2.69946 17.3848
rtibia 39.966
rfoot 1.75213 -16.8645
rtoes 8.55128
lfemur -18.3578 -7.21108 -19.2543
ltibia 33.9735
lfoot 16.1396 -7.40389
ltoes -10.6823
2271
root -1.47015 21.8485 2.60344 -689.279 -100.125 697.433
lowerback 7.06653 0.287136 -3.00253
upperback -8.01167 -0.0528281 1.19571
thorax -12.6908 0.248714 3.02071
lowerneck -19.3635 -5.97695 -13.3989
upperneck -12.577 -5.92945 9.55847
head -0.128585 -2.75338 4.80065
rclavicle 1.48095e-014 1.27222e-014
rhumerus 109.99 -21.7528 -57.2263
rradius 26.2838
rwrist -10.3908
rhand -40.4731 -7.11968
rfingers 7.12502
rthumb -13.4238 -36.6672
lclavicle 1.48095e-014 1.27222e-014
lhumerus 104.19 26.4706 56.7034
lradius 20.9303
lwrist 18.8016
lhand -20.4345 37.1247
lfingers 7.12502
lthumb 5.92033 67.022
rfemur -15.5506 2.83767 17.2962
rtibia 39.9154
rfoot 0.868126 -16.048
rtoes 8.88977
lfemur -18.3144 -7.53978 -19.4469
ltibia 33.9822
lfoot 14.7697 -7.39567
ltoes -12.8148
2272
root -1.52564 21.8657 2.57376 -688.106 -99.7347 696.432
lowerback 6.82365 0.366813 -3.03789
upperback -8.19745 0.0499472 1.24804
thorax -12.7659 0.303247 3.08104
lowerneck -20.2349 -6.24276 -13.8061
upperneck -11.7866 -6.06789 9.75909
head 0.25955 -2.7832 4.88383
rclavicle -7.35503e-015 -4.77083e-015
rhumerus 110.22 -21.8717 -56.4321
rradius 26.6106
rwrist -12.0346
rhand -37.9124 -5.86434
rfingers 7.12502
rthumb -10.9548 -35.5585
lclavicle -7.35503e-015 -4.77083e-015
lhumerus 105.139 26.6352 57.6108
lradius 21.0485
lwrist 20.2017
lhand -21.3849 37.3175
lfingers 7.12502
lthumb 5.00275 67.2384
rfemur -15.8052 2.77378 17.3815
rtibia 39.8836
rfoot 0.336604 -15.1835
rtoes 8.26262
lfemur -18.2806 -7.6364 -19.4928
ltibia 33.9809
lfoot 13.7406 -7.2792
ltoes -14.0559
2273
root -1.58338 21.8764 2.54549 -686.54 -99.3995 695.012
lowerback 6.49012 0.443842 -3.12378
upperback -8.36228 0.144701 1.29106
thorax -12.7608 0.356307 3.16039
lowerneck -20.8347 -6.46551 -14.318
upperneck -11.1186 -6.1538 9.95712
head 0.571253 -2.78688 4.99538
rclavicle 9.44227e-015 8.74653e-015
rhumerus 110.134 -22.1187 -55.1982
rradius 27.0043
rwrist -12.865
rhand -34.3469 -5.65468
rfingers 7.12502
rthumb -7.51441 -35.5012
lclavicle 9.44227e-015 8.74653e-015
lhumerus 104.702 27.578 56.617
lradius 21.9671
lwrist 23.3027
lhand -21.0736 37.772
lfingers 7.12502
lthumb 5.30328 67.6857
rfemur -16.0412 2.44535 17.3878
rtibia 39.8772
rfoot 0.0116321 -14.2412
rtoes 6.67381
lfemur -18.2293 -7.5981 -19.6294
ltibia 33.9582
lfoot 13.0653 -6.79524
ltoes -13.1395
2274
root -1.63976 21.8742 2.51563 -684.196 -99.0765 692.74
lowerback 6.18858 0.522169 -3.30206
upperback -8.55391 0.217686 1.23945
thorax -12.8065 0.403235 3.19281
lowerneck -20.8843 -6.41004 -14.1902
upperneck -10.99 -6.09378 9.71829
head 0.594341 -2.75916 4.90076
rclavicle 3.18055e-015 -3.18055e-015
rhumerus 109.497 -22.4904 -53.4444
rradius 27.5094
rwrist -13.3274
rhand -30.9149 -5.40293
rfingers 7.12502
rthumb -4.20092 -35.3413
lclavicle 3.18055e-015 -3.18055e-015
lhumerus 103.916 28.3248 55.2239
lradius 23.1505
lwrist 26.5134
lhand -20.6145 38.3498
lfingers 7.12502
lthumb 5.74654 68.2518
rfemur -16.1933 1.89951 17.2604
rtibia 39.8671
rfoot -0.481988 -13.3201
rtoes 6.02945
lfemur -18.0908 -7.49987 -19.9017
ltibia 33.9448
lfoot 12.2945 -6.4363
ltoes -12.7745
